{"accessors":[{"bufferView":0,"byteOffset":0,"componentType":5126,"count":106968,"max":[100,9.03301,100],"min":[0,0.5,0],"normalized":false,"type":"VEC3"},{"bufferView":1,"byteOffset":0,"componentType":5126,"count":106968,"max":[1,0,1,1],"min":[-1,-0.000022,-1,1],"normalized":false,"type":"VEC4"},{"bufferView":2,"byteOffset":0,"componentType":5126,"count":106968,"max":[1,1,0.998447],"min":[-1,0.000473,-0.998014],"normalized":false,"type":"VEC3"},{"bufferView":3,"byteOffset":0,"componentType":5125,"count":106968,"max":[106967],"min":[0],"normalized":false,"type":"SCALAR"}],"asset":{"generator":"Godot Engine v4.2.1.stable.official@b09f793f564a6c95dc76acc654b390e68441bd01","version":"2.0"},"bufferViews":[{"buffer":0,"byteLength":1283616,"byteOffset":0},{"buffer":0,"byteLength":1711488,"byteOffset":1283616},{"buffer":0,"byteLength":1283616,"byteOffset":2995104},{"buffer":0,"byteLength":427872,"byteOffset":4278720}],"buffers":[{"byteLength":4706592,"uri":"terrain0.bin"}],"extensionsUsed":["GODOT_single_root"],"materials":[{}],"meshes":[{"extras":{"targetNames":[]},"primitives":[{"attributes":{"NORMAL":2,"POSITION":0,"TANGENT":1},"indices":3,"material":0,"mode":4}]}],"nodes":[{"extensions":{},"mesh":0,"name":"terrain"}],"scene":0,"scenes":[{"nodes":[0]}]}